# xmcd
#
# Track frame offsets:
#	183
#	14145
#	24363
#	36705
#	49275
#	61558
#	75840
#	91038
#	105213
#	120330
#	132428
#	145085
#	159955
#	174173
#
# Disc length: 2474
#
# Revision: 4
# Processed by: cddbd v1.5.1PL0 Copyright (c) Steve Scherf et al.
# Submitted via: CDValet v3.31 - Copyright (c) 1997 Greg Leichner
# Normalized: r2:DSETVAR1,TDELIM( - ),TSWAP
#
DISCID=9e09a80e
DTITLE=Various Artist - *Country Gala Vol. 4*
DYEAR=1900
DGENRE=
TTITLE0=Bellamy Brothers - If I Said You Had A Beautiful Body
TTITLE1=Frankie Laine - I Believe
TTITLE2=Charlie Rich - A Very Special Love Song
TTITLE3=Marty Robbins - Streets Of Laredo
TTITLE4=Don Williams - Some Broken Hearts Never Mend
TTITLE5=Tammy Wynette - No Charge
TTITLE6=Emmylou Harris - (You Never Can Tell) C`est La Vie
TTITLE7=Eddie Rabbitt - I Love A Rainy Night
TTITLE8=Timi Yuro - You Are My Special Angel
TTITLE9=Freddy Fender - Tell It Like It Is
TTITLE10=Patsy Cline - I Fall To Pieces
TTITLE11=Ricky Scaggs - Don`t Cheat In Our Hometown
TTITLE12=Billy Jo Spears - Cryin' Time
TTITLE13=Johnny Cash - A Thing Called Love
EXTD=
EXTT0=
EXTT1=
EXTT2=
EXTT3=
EXTT4=
EXTT5=
EXTT6=
EXTT7=
EXTT8=
EXTT9=
EXTT10=
EXTT11=
EXTT12=
EXTT13=
PLAYORDER=
